{"title":"Delgo.2008.720p.BRRip.x264.Feel-Free","uid":6201959,"size":2228482660,"categoryP":"video","categoryS":"hd___movies","magnet":"?xt=urn:btih:647425bff4bc5edfc68c5a702c4bc910fe59d3ca&amp;dn=Delgo.2008.720p.BRRip.x264.Feel-Free&amp;tr=udp%3A%2F%2Ftracker.openbittorrent.com%3A80&amp;tr=udp%3A%2F%2Fopen.demonii.com%3A1337&amp;tr=udp%3A%2F%2Ftracker.coppersurfer.tk%3A6969&amp;tr=udp%3A%2F%2Fexodus.desync.com%3A6969","seeders":0,"leechers":2,"uploader":"hiest","files":-1,"time":1298650544,"description":"Genre:Animation | Adventure | Comedy\nLanguage:English\nIMDb:http://www.imdb.com/title/tt0361500/\nSource:1080p.BluRay.x264-HALCYON\nSubtitles:Romana/English\n\n\nFormat : MPEG-4\nFormat profile : Base Media\nCodec ID : isom\nFile size : 2.07 GiB\nDuration : 1h 29mn\nOverall bit rate : 3 315 Kbps\n\n\nVideo\nFormat profile : &lt;a class=&quot;__cf_email__&quot; href=&quot;/cdn-cgi/l/email-protection&quot; data-cfemail=&quot;eba3828c83aba7dfc5da&quot;&gt;[email&amp;#160;protected]&lt;/a&gt;&lt;script cf-hash='f9e31' type=&quot;text/javascript&quot;&gt;\n/* &lt;![CDATA[ */!function(){try{var t=&quot;currentScript&quot;in document?document.currentScript:function(){for(var t=document.getElementsByTagName(&quot;script&quot;),e=t.length;e--;)if(t[e].getAttribute(&quot;cf-hash&quot;))return t[e]}();if(t&amp;&amp;t.previousSibling){var e,r,n,i,c=t.previousSibling,a=c.getAttribute(&quot;data-cfemail&quot;);if(a){for(e=&quot;&quot;,r=parseInt(a.substr(0,2),16),n=2;a.length-n;n+=2)i=parseInt(a.substr(n,2),16)^r,e+=String.fromCharCode(i);e=document.createTextNode(e),c.parentNode.replaceChild(e,c)}}}catch(u){}}();/* ]]&gt; */&lt;/script&gt;\nFormat settings, CABAC : Yes\nFormat settings, ReFrames : 3 frames\nCodec ID : avc1\nCodec ID/Info : Advanced Video Coding\nDuration : 1h 29mn\nBit rate mode : Variable\nBit rate : 2 969 Kbps\nMaximum bit rate : 14.5 Mbps\nWidth : 1 280 pixels\nHeight : 720 pixels\nDisplay aspect ratio : 16:9\nFrame rate mode : Constant\nFrame rate : 23.976 fps\nColor space : YUV\nChroma subsampling : 4:2:0\nBit depth : 8 bits\nScan type : Progressive\nBits/(Pixel*Frame) : 0.134\nStream size : 1.79 GiB (86%)\nWriting library : x264\n\nAudio\nID : 2\nFormat : AAC\nFormat/Info : Advanced Audio Codec\nFormat version : Version 4\nFormat profile : LC\nFormat settings, SBR : No\nCodec ID : 40\nDuration : 1h 29mn\nBit rate mode : Variable\nBit rate : 447 Kbps\nMaximum bit rate : 539 Kbps\nChannel(s) : 6 channels\nChannel positions : Front: L C R, Side: L R, LFE\nSampling rate : 48.0 KHz\nStream size : 286 MiB (13%)\n\n\nPlot:\nDelgo, an adventurous but naive teenager, must rally his group of friends to protect their world from conflict between the Lockni and Nohrin people.\n\n\n\n\n================================== &lt;a href=&quot;\nhttp://thepiratebay.se/user/hiest&quot; rel=&quot;nofollow&quot; target=&quot;_NEW&quot;&gt;\nhttp://thepiratebay.se/user/hiest&lt;/a&gt;\n==================================\n\n\n\n\nScreenshots:\n &lt;a href=&quot;\nhttp://www.postimg.com/29000/28945.jpg&quot; rel=&quot;nofollow&quot; target=&quot;_NEW&quot;&gt;\nhttp://www.postimg.com/29000/28945.jpg&lt;/a&gt;\n &lt;a href=&quot;\nhttp://www.postimg.com/29000/28946.jpg&quot; rel=&quot;nofollow&quot; target=&quot;_NEW&quot;&gt;\nhttp://www.postimg.com/29000/28946.jpg&lt;/a&gt;\n &lt;a href=&quot;\nhttp://www.postimg.com/29000/28947.jpg&quot; rel=&quot;nofollow&quot; target=&quot;_NEW&quot;&gt;\nhttp://www.postimg.com/29000/28947.jpg&lt;/a&gt;\n &lt;a href=&quot;\nhttp://www.postimg.com/29000/28948.jpg&quot; rel=&quot;nofollow&quot; target=&quot;_NEW&quot;&gt;\nhttp://www.postimg.com/29000/28948.jpg&lt;/a&gt;\n &lt;a href=&quot;\nhttp://www.postimg.com/29000/28949.jpg&quot; rel=&quot;nofollow&quot; target=&quot;_NEW&quot;&gt;\nhttp://www.postimg.com/29000/28949.jpg&lt;/a&gt;","torrent":{"xt":"urn:btih:647425bff4bc5edfc68c5a702c4bc910fe59d3ca","amp;dn":"Delgo.2008.720p.BRRip.x264.Feel-Free","amp;tr":["udp%3A%2F%2Ftracker.openbittorrent.com%3A80","udp%3A%2F%2Fopen.demonii.com%3A1337","udp%3A%2F%2Ftracker.coppersurfer.tk%3A6969","udp%3A%2F%2Fexodus.desync.com%3A6969"],"infoHash":"647425bff4bc5edfc68c5a702c4bc910fe59d3ca","infoHashBuffer":{"type":"Buffer","data":[100,116,37,191,244,188,94,223,198,140,90,112,44,75,201,16,254,89,211,202]},"announce":[],"urlList":[]}}